<svg width="1593" height="333" viewBox="0 0 1593 333" fill="none" xmlns="http://www.w3.org/2000/svg">
<path d="M186.568 68.3086H206.622C207.007 68.3086 207.387 68.4274 207.705 68.6467L334.418 155.721C334.937 156.079 335.247 156.668 335.247 157.301V171.196C335.247 172.74 333.518 173.651 332.245 172.777L185.483 71.8121C183.929 70.7427 184.684 68.3086 186.568 68.3086ZM194.965 96.4965L152.182 68.621C151.872 68.4152 151.51 68.3086 151.138 68.3086H141.174C140.114 68.3086 139.258 69.1685 139.258 70.2306V77.3344C139.258 77.9806 139.585 78.5919 140.132 78.9434L186.327 108.974C187.2 109.539 188.365 109.308 188.954 108.452L195.469 98.9581C195.973 98.1214 195.884 97.1763 194.965 96.4965ZM334.431 192.728L310.512 175.96C309.638 175.345 308.436 175.567 307.834 176.443L301.428 185.777C300.83 186.651 301.049 187.841 301.916 188.442L332.243 209.37C333.514 210.246 335.247 209.334 335.247 207.786V194.3C335.247 193.676 334.945 193.09 334.431 192.728ZM214.596 202.025L205.104 195.492C204.231 194.893 203.037 195.114 202.436 195.988L157.547 261.376C156.672 262.645 157.583 264.381 159.126 264.381H172.872C173.503 264.381 174.095 264.07 174.451 263.548L215.055 204.403C215.519 203.504 215.373 202.709 214.596 202.025ZM215.399 147.334L142.259 97.0122C140.987 96.1345 139.258 97.0459 139.258 98.5943V112.351C139.258 112.984 139.569 113.577 140.089 113.932L194.125 151.114C194.999 151.713 195.223 152.91 194.624 153.783L139.593 233.914C139.375 234.232 139.258 234.612 139.258 234.999V249.391V255.648C139.258 257.536 141.693 258.29 142.754 256.73L215.851 149.667C216.344 148.817 216.116 147.911 215.399 147.334ZM259.617 196.164L332.245 246.12C333.518 246.992 335.247 246.081 335.247 244.539V230.75C335.247 230.118 334.937 229.527 334.418 229.171L255.852 175.162C254.981 174.561 253.785 174.786 253.186 175.656L194.339 261.376C193.465 262.645 194.376 264.381 195.916 264.381H209.663C210.294 264.381 210.885 264.07 211.24 263.548L257.214 196.582C257.872 195.775 258.716 195.619 259.617 196.164Z" fill="#FEFEFE"/>
<path d="M715.333 221.651H711.48L704.876 235.053L698.269 221.651H694.119V224.648L702.037 240.324L696.11 250.858V253.856H700.132L715.333 224.478V221.651ZM724.081 234.326H733.144V243.148H738.309V221.651H733.144V229.959H724.081V221.651H718.958V243.148H724.081V234.326ZM758.802 229.016V243.148H763.97V221.651H759.143L749.318 235.74V221.651H744.195V243.148H748.979L758.802 229.016ZM786.115 241.523C787.554 240.438 788.274 238.838 788.274 236.724C788.274 235.525 787.921 234.492 787.215 233.62C786.51 232.75 785.522 232.129 784.252 231.757C786.369 230.901 787.428 229.387 787.428 227.219C787.428 225.391 786.735 223.993 785.352 223.02C783.969 222.051 782.134 221.563 779.849 221.563H769.855V243.148H780.315C782.741 243.148 784.675 242.607 786.115 241.523ZM779.297 225.419C781.19 225.419 782.134 226.176 782.134 227.689C782.134 229.259 781.19 230.044 779.297 230.044H774.894V225.419H779.297ZM779.553 233.942C781.838 233.942 782.982 234.827 782.982 236.596C782.982 238.366 781.838 239.252 779.553 239.252H774.894V233.942H779.553ZM806.534 243.256C807.649 242.984 808.523 242.678 809.158 242.336C809.792 241.993 810.357 241.607 810.85 241.178C811.346 240.749 811.657 240.451 811.784 240.279C811.911 240.108 812.001 239.965 812.06 239.852V237.025H808.332L808.29 237.153C808.234 237.238 808.15 237.346 808.037 237.474C807.924 237.604 807.782 237.753 807.613 237.923C807.444 238.095 807.216 238.267 806.936 238.437C806.653 238.609 806.327 238.759 805.961 238.887C805.594 239.016 805.149 239.124 804.627 239.208C804.105 239.294 803.549 239.337 802.955 239.337C801.119 239.337 799.68 238.809 798.636 237.753C797.592 236.697 796.997 235.242 796.858 233.385H812.272L812.482 230.857C812.482 227.945 811.649 225.597 809.984 223.813C808.319 222.029 805.819 221.137 802.49 221.137C799.129 221.137 796.489 222.208 794.571 224.349C792.65 226.49 791.691 229.174 791.691 232.4C791.691 235.769 792.659 238.49 794.592 240.558C796.525 242.627 799.299 243.663 802.913 243.663C804.21 243.663 805.417 243.527 806.534 243.256ZM802.49 225.419C804.097 225.419 805.333 225.841 806.193 226.682C807.054 227.526 807.486 228.588 807.486 229.874H797.028C797.646 226.904 799.468 225.419 802.49 225.419ZM822.462 239.979C824.158 242.435 826.569 243.663 829.704 243.663C832.638 243.663 834.996 242.579 836.774 240.407C838.554 238.238 839.443 235.554 839.443 232.356C839.443 229.161 838.567 226.49 836.816 224.349C835.068 222.208 832.695 221.137 829.704 221.137C826.541 221.137 824.114 222.393 822.42 224.905L822.038 221.651H817.338V253.856H822.462V239.979ZM824.072 237.112C822.999 235.769 822.462 234.183 822.462 232.356C822.462 230.53 822.999 228.945 824.072 227.603C825.116 226.319 826.555 225.675 828.392 225.675C830.367 225.675 831.834 226.333 832.794 227.645C833.782 228.988 834.277 230.559 834.277 232.356C834.277 234.183 833.782 235.769 832.794 237.112C831.806 238.454 830.338 239.124 828.392 239.124C826.583 239.124 825.144 238.454 824.072 237.112ZM857.38 243.192C858.438 242.878 859.25 242.526 859.814 242.142C860.378 241.757 860.872 241.307 861.294 240.793C861.72 240.279 861.98 239.923 862.08 239.724C862.177 239.523 862.254 239.367 862.313 239.252V236.425H858.712V236.512C858.686 236.568 858.643 236.653 858.585 236.768C858.53 236.881 858.466 237.004 858.396 237.132C858.325 237.261 858.22 237.411 858.077 237.582C857.936 237.753 857.782 237.911 857.613 238.053C857.442 238.196 857.237 238.338 856.999 238.481C856.757 238.624 856.489 238.753 856.193 238.866C855.898 238.981 855.551 239.067 855.156 239.124C854.761 239.18 854.337 239.208 853.886 239.208C852.023 239.208 850.597 238.573 849.608 237.303C848.622 236.033 848.128 234.398 848.128 232.4C848.128 230.402 848.622 228.76 849.608 227.475C850.597 226.19 852.023 225.548 853.886 225.548C854.422 225.548 854.93 225.597 855.41 225.698C855.889 225.799 856.285 225.926 856.595 226.082C856.906 226.24 857.189 226.425 857.442 226.64C857.697 226.853 857.902 227.055 858.057 227.239C858.212 227.425 858.339 227.603 858.438 227.775C858.537 227.945 858.601 228.074 858.629 228.16L858.672 228.332H862.27V225.504L862.101 225.078C861.959 224.763 861.689 224.384 861.294 223.942C860.901 223.499 860.413 223.062 859.835 222.635C859.256 222.208 858.438 221.843 857.38 221.543C856.319 221.243 855.156 221.093 853.886 221.093C850.554 221.093 847.9 222.173 845.924 224.327C843.95 226.483 842.962 229.174 842.962 232.4C842.962 235.655 843.907 238.346 845.797 240.474C847.689 242.6 850.385 243.663 853.886 243.663C855.156 243.663 856.319 243.505 857.38 243.192ZM881.88 229.016V243.148H887.045V221.651H882.219L872.393 235.74V221.651H867.271V243.148H872.055L881.88 229.016ZM902.395 225.974H908.916V221.651H890.75V225.974H897.272V243.148H902.395V225.974ZM926.17 243.256C927.286 242.984 928.162 242.678 928.797 242.336C929.432 241.993 929.996 241.607 930.49 241.178C930.984 240.749 931.295 240.451 931.422 240.279C931.549 240.108 931.639 239.965 931.698 239.852V237.025H927.971L927.929 237.153C927.872 237.238 927.787 237.346 927.674 237.474C927.562 237.604 927.42 237.753 927.251 237.923C927.081 238.095 926.855 238.267 926.574 238.437C926.289 238.609 925.966 238.759 925.598 238.887C925.232 239.016 924.788 239.124 924.265 239.208C923.743 239.294 923.185 239.337 922.594 239.337C920.757 239.337 919.318 238.809 918.274 237.753C917.229 236.697 916.635 235.242 916.496 233.385H931.909L932.121 230.857C932.121 227.945 931.286 225.597 929.621 223.813C927.956 222.029 925.458 221.137 922.128 221.137C918.768 221.137 916.127 222.208 914.209 224.349C912.288 226.49 911.329 229.174 911.329 232.4C911.329 235.769 912.296 238.49 914.23 240.558C916.162 242.627 918.937 243.663 922.55 243.663C923.849 243.663 925.055 243.527 926.17 243.256ZM922.128 225.419C923.736 225.419 924.97 225.841 925.832 226.682C926.692 227.526 927.124 228.588 927.124 229.874H916.665C917.285 226.904 919.107 225.419 922.128 225.419ZM946.48 225.974H953V221.651H934.834V225.974H941.355V243.148H946.48V225.974Z" fill="#FEFEFE"/>
<path d="M389.371 215.798H399.11V211H374V215.798H383.739V243.12H389.371V215.798ZM404.348 239.951C406.042 242.406 408.455 243.634 411.588 243.634C414.524 243.634 416.88 242.549 418.66 240.38C420.439 238.211 421.327 235.527 421.327 232.329C421.327 229.132 420.452 226.46 418.704 224.319C416.951 222.178 414.581 221.107 411.588 221.107C408.425 221.107 405.998 222.364 404.306 224.877L403.924 221.62H399.224V253.826H404.348V239.951ZM405.956 237.081C404.884 235.741 404.348 234.156 404.348 232.329C404.348 230.501 404.884 228.916 405.956 227.574C407.001 226.29 408.44 225.647 410.276 225.647C412.251 225.647 413.72 226.304 414.679 227.617C415.668 228.96 416.161 230.529 416.161 232.329C416.161 234.156 415.668 235.741 414.679 237.081C413.691 238.425 412.223 239.094 410.276 239.094C408.468 239.094 407.029 238.425 405.956 237.081ZM438.206 240.164L438.672 243.12H443.076V229.93C443.076 227.046 442.297 224.856 440.746 223.356C439.194 221.857 436.92 221.107 433.928 221.107C432.772 221.107 431.707 221.244 430.732 221.515C429.758 221.787 428.989 222.092 428.425 222.435C427.861 222.777 427.359 223.171 426.922 223.612C426.483 224.057 426.208 224.362 426.095 224.532C425.982 224.706 425.897 224.848 425.841 224.961V227.789H429.483L429.568 227.659C429.624 227.574 429.702 227.467 429.8 227.34C429.899 227.21 430.026 227.06 430.181 226.889C430.336 226.718 430.534 226.547 430.774 226.376C431.014 226.203 431.275 226.053 431.559 225.926C431.84 225.799 432.173 225.689 432.554 225.604C432.934 225.519 433.351 225.477 433.802 225.477C436.539 225.477 437.91 226.917 437.91 229.8V230.959L437.36 230.829C436.963 230.743 436.391 230.659 435.643 230.572C434.895 230.487 434.169 230.444 433.464 230.444C430.499 230.444 428.284 231.035 426.816 232.221C425.346 233.406 424.613 234.983 424.613 236.953C424.613 238.78 425.206 240.352 426.39 241.663C427.579 242.977 429.356 243.634 431.728 243.634C434.493 243.634 436.652 242.477 438.206 240.164ZM429.695 236.695C429.695 234.813 431.007 233.871 433.633 233.871C435.298 233.871 436.725 234.04 437.91 234.383V235.412C437.91 236.439 437.465 237.381 436.576 238.236C435.686 239.094 434.493 239.523 432.998 239.523C430.794 239.523 429.695 238.581 429.695 236.695ZM453.946 234.299H463.007V243.12H468.174V221.62H463.007V229.93H453.946V221.62H448.823V243.12H453.946V234.299ZM487.299 243.163C488.357 242.849 489.168 242.498 489.733 242.114C490.298 241.727 490.793 241.278 491.216 240.764C491.64 240.251 491.901 239.893 491.999 239.694C492.098 239.494 492.175 239.337 492.232 239.223V236.396H488.633V236.482C488.603 236.54 488.562 236.625 488.506 236.74C488.449 236.853 488.386 236.975 488.315 237.103C488.244 237.231 488.139 237.381 487.998 237.553C487.857 237.724 487.7 237.881 487.531 238.024C487.363 238.166 487.158 238.309 486.918 238.451C486.678 238.595 486.41 238.724 486.114 238.837C485.817 238.952 485.47 239.038 485.075 239.094C484.68 239.153 484.257 239.181 483.805 239.181C481.943 239.181 480.515 238.546 479.528 237.274C478.54 236.004 478.046 234.37 478.046 232.371C478.046 230.373 478.54 228.731 479.528 227.447C480.515 226.161 481.943 225.519 483.805 225.519C484.341 225.519 484.85 225.568 485.329 225.669C485.809 225.769 486.204 225.898 486.516 226.053C486.825 226.212 487.109 226.397 487.363 226.611C487.618 226.824 487.821 227.024 487.976 227.21C488.131 227.396 488.259 227.574 488.357 227.747C488.457 227.918 488.52 228.045 488.547 228.131L488.59 228.302H492.19V225.477L492.02 225.048C491.88 224.734 491.611 224.357 491.216 223.912C490.819 223.471 490.333 223.036 489.754 222.607C489.176 222.178 488.357 221.815 487.299 221.515C486.241 221.215 485.075 221.066 483.805 221.066C480.473 221.066 477.821 222.142 475.845 224.298C473.868 226.454 472.88 229.145 472.88 232.371C472.88 235.625 473.826 238.317 475.718 240.443C477.608 242.57 480.305 243.634 483.805 243.634C485.075 243.634 486.241 243.477 487.299 243.163ZM502.314 225.946H510.953V243.12H516.118V221.62H497.19V243.12H502.314V225.946ZM539.744 240.38C541.737 238.211 542.731 235.527 542.731 232.329C542.731 229.132 541.737 226.46 539.744 224.319C537.755 222.178 535.094 221.107 531.765 221.107C528.376 221.107 525.693 222.178 523.718 224.319C521.742 226.46 520.754 229.132 520.754 232.329C520.754 235.555 521.75 238.246 523.739 240.401C525.73 242.556 528.405 243.634 531.765 243.634C535.094 243.634 537.755 242.549 539.744 240.38ZM527.361 237.167C526.401 235.854 525.922 234.24 525.922 232.329C525.922 230.473 526.401 228.887 527.361 227.574C528.349 226.233 529.815 225.562 531.765 225.562C533.711 225.562 535.178 226.233 536.169 227.574C537.1 228.916 537.565 230.501 537.565 232.329C537.565 234.24 537.1 235.854 536.169 237.167C535.178 238.51 533.711 239.181 531.765 239.181C529.815 239.181 528.349 238.51 527.361 237.167ZM552.416 239.951C554.108 242.406 556.523 243.634 559.656 243.634C562.593 243.634 564.948 242.549 566.728 240.38C568.506 238.211 569.395 235.527 569.395 232.329C569.395 229.132 568.52 226.46 566.77 224.319C565.019 222.178 562.648 221.107 559.656 221.107C556.493 221.107 554.066 222.364 552.373 224.877L551.992 221.62H547.292V253.826H552.416V239.951ZM554.024 237.081C552.951 235.741 552.416 234.156 552.416 232.329C552.416 230.501 552.951 228.916 554.024 227.574C555.067 226.29 556.508 225.647 558.344 225.647C560.319 225.647 561.788 226.304 562.747 227.617C563.736 228.96 564.229 230.529 564.229 232.329C564.229 234.156 563.736 235.741 562.747 237.081C561.758 238.425 560.291 239.094 558.344 239.094C556.535 239.094 555.096 238.425 554.024 237.081ZM583.5 225.946H590.021V221.62H571.855V225.946H578.376V243.12H583.5V225.946ZM598.87 234.299H607.932V243.12H613.098V221.62H607.932V229.93H598.87V221.62H593.747V243.12H598.87V234.299ZM634.693 240.934C636.132 239.537 636.853 237.782 636.853 235.67C636.853 233.528 636.097 231.807 634.587 230.509C633.077 229.209 630.867 228.559 627.96 228.559H624.106V221.62H618.983V243.12H627.876C630.924 243.12 633.197 242.393 634.693 240.934ZM644.644 221.62H639.52V243.119H644.644V221.62ZM627.496 232.584C630.176 232.584 631.518 233.626 631.518 235.711C631.518 237.967 630.176 239.094 627.496 239.094H624.106V232.584H627.496ZM665.201 217.167C665.653 216.854 666.048 216.497 666.387 216.097C666.725 215.697 666.945 215.385 667.043 215.155C667.142 214.926 667.22 214.726 667.275 214.555V211.986H663.508C663.508 212.185 663.438 212.471 663.296 212.843C663.154 213.213 662.844 213.613 662.364 214.04C661.884 214.469 661.306 214.684 660.629 214.684C659.895 214.684 659.288 214.469 658.808 214.04C658.327 213.613 658.03 213.221 657.92 212.864C657.805 212.508 657.751 212.215 657.751 211.986H653.98V214.555C654.037 214.726 654.115 214.926 654.214 215.155C654.313 215.385 654.531 215.697 654.87 216.097C655.208 216.497 655.603 216.854 656.055 217.167C656.506 217.482 657.135 217.76 657.94 218.002C658.744 218.245 659.641 218.366 660.629 218.366C661.617 218.366 662.512 218.245 663.319 218.002C664.122 217.76 664.751 217.482 665.201 217.167ZM665.159 228.988V243.12H670.325V221.62H665.497L655.674 235.711V221.62H650.55V243.12H655.336L665.159 228.988Z" fill="#FEFEFE"/>
<path d="M450.273 128.636V140.545H411.318V128.636H450.273ZM387.273 150.455H401.545C402.333 156.576 404.364 161.258 407.636 164.5C410.939 167.742 416.076 169.364 423.045 169.364C428.197 169.364 432.439 168 435.773 165.273C439.106 162.515 441.576 158.788 443.182 154.091C444.818 149.394 445.636 144.121 445.636 138.273V128.818C445.636 122.515 444.727 117.03 442.909 112.364C441.091 107.697 438.439 104.091 434.955 101.545C431.5 99 427.273 97.7273 422.273 97.7273C417.758 97.7273 414.061 98.5 411.182 100.045C408.303 101.591 406.091 103.803 404.545 106.682C403.03 109.53 402.03 112.97 401.545 117H387.227C387.833 111 389.5 105.636 392.227 100.909C394.985 96.1818 398.848 92.4545 403.818 89.7273C408.818 87 414.97 85.6364 422.273 85.6364C429.97 85.6364 436.621 87.4242 442.227 91C447.864 94.5455 452.212 99.5455 455.273 106C458.333 112.455 459.864 120.03 459.864 128.727V138.409C459.864 147.106 458.348 154.667 455.318 161.091C452.318 167.515 448.061 172.485 442.545 176C437.03 179.515 430.53 181.273 423.045 181.273C415.561 181.273 409.273 179.939 404.182 177.273C399.091 174.576 395.152 170.909 392.364 166.273C389.576 161.606 387.879 156.333 387.273 150.455ZM550.125 86.9091V180H536.125V98.9091H492.307V180H478.307V86.9091H550.125ZM571.602 86.9091H585.511V155.273H586.375L633.739 86.9091H646.739V180H632.693V111.727H631.83L584.557 180H571.602V86.9091ZM707.273 127.545V139.364H666V127.545H707.273ZM756.364 181.273C750.121 181.273 744.545 180.197 739.636 178.045C734.758 175.894 730.894 172.909 728.045 169.091C725.227 165.242 723.712 160.788 723.5 155.727H737.773C737.955 158.485 738.879 160.879 740.545 162.909C742.242 164.909 744.455 166.455 747.182 167.545C749.909 168.636 752.939 169.182 756.273 169.182C759.939 169.182 763.182 168.545 766 167.273C768.848 166 771.076 164.227 772.682 161.955C774.288 159.652 775.091 157 775.091 154C775.091 150.879 774.288 148.136 772.682 145.773C771.106 143.379 768.788 141.5 765.727 140.136C762.697 138.773 759.03 138.091 754.727 138.091H746.864V126.636H754.727C758.182 126.636 761.212 126.015 763.818 124.773C766.455 123.53 768.515 121.803 770 119.591C771.485 117.348 772.227 114.727 772.227 111.727C772.227 108.848 771.576 106.348 770.273 104.227C769 102.076 767.182 100.394 764.818 99.1818C762.485 97.9697 759.727 97.3636 756.545 97.3636C753.515 97.3636 750.682 97.9242 748.045 99.0455C745.439 100.136 743.318 101.712 741.682 103.773C740.045 105.803 739.167 108.242 739.045 111.091H725.455C725.606 106.061 727.091 101.636 729.909 97.8182C732.758 94 736.515 91.0151 741.182 88.8636C745.848 86.7121 751.03 85.6364 756.727 85.6364C762.697 85.6364 767.848 86.803 772.182 89.1364C776.545 91.4394 779.909 94.5151 782.273 98.3636C784.667 102.212 785.848 106.424 785.818 111C785.848 116.212 784.394 120.636 781.455 124.273C778.545 127.909 774.667 130.348 769.818 131.591V132.318C776 133.258 780.788 135.712 784.182 139.682C787.606 143.652 789.303 148.576 789.273 154.455C789.303 159.576 787.879 164.167 785 168.227C782.152 172.288 778.258 175.485 773.318 177.818C768.379 180.121 762.727 181.273 756.364 181.273ZM841.773 86.9091V180H827.682V101H827.136L804.864 115.545V102.091L828.091 86.9091H841.773ZM866.955 180V169.818L898.455 137.182C901.818 133.636 904.591 130.53 906.773 127.864C908.985 125.167 910.636 122.606 911.727 120.182C912.818 117.758 913.364 115.182 913.364 112.455C913.364 109.364 912.636 106.697 911.182 104.455C909.727 102.182 907.742 100.439 905.227 99.2273C902.712 97.9848 899.879 97.3636 896.727 97.3636C893.394 97.3636 890.485 98.0455 888 99.4091C885.515 100.773 883.606 102.697 882.273 105.182C880.939 107.667 880.273 110.576 880.273 113.909H866.864C866.864 108.242 868.167 103.288 870.773 99.0455C873.379 94.803 876.955 91.5151 881.5 89.1818C886.045 86.8182 891.212 85.6364 897 85.6364C902.848 85.6364 908 86.803 912.455 89.1364C916.939 91.4394 920.439 94.5909 922.955 98.5909C925.47 102.561 926.727 107.045 926.727 112.045C926.727 115.5 926.076 118.879 924.773 122.182C923.5 125.485 921.273 129.167 918.091 133.227C914.909 137.258 910.485 142.152 904.818 147.909L886.318 167.273V167.955H928.227V180H866.955Z" fill="white"/>
</svg>
