<svg width="949" height="245" viewBox="0 0 949 245" fill="none" xmlns="http://www.w3.org/2000/svg">
<path d="M84.5676 24.3086H104.622C105.007 24.3086 105.387 24.4274 105.705 24.6467L232.418 111.721C232.937 112.079 233.247 112.668 233.247 113.301V127.196C233.247 128.74 231.518 129.651 230.245 128.777L83.4827 27.8121C81.9294 26.7427 82.6843 24.3086 84.5676 24.3086ZM92.9653 52.4965L50.182 24.621C49.8716 24.4152 49.5097 24.3086 49.1381 24.3086H39.1736C38.1144 24.3086 37.2584 25.1685 37.2584 26.2306V33.3344C37.2584 33.9806 37.5848 34.5919 38.1321 34.9434L84.327 64.9737C85.2001 65.539 86.3646 65.3081 86.9536 64.4518L93.4692 54.9581C93.9731 54.1214 93.8843 53.1763 92.9653 52.4965ZM232.431 148.728L208.512 131.96C207.638 131.345 206.436 131.567 205.834 132.443L199.428 141.777C198.83 142.651 199.049 143.841 199.916 144.442L230.243 165.37C231.514 166.246 233.247 165.334 233.247 163.786V150.3C233.247 149.676 232.945 149.09 232.431 148.728ZM112.596 158.025L103.104 151.492C102.231 150.893 101.037 151.114 100.436 151.988L55.5472 217.376C54.6717 218.645 55.5827 220.381 57.1262 220.381H70.872C71.5026 220.381 72.0953 220.07 72.451 219.548L113.055 160.403C113.519 159.504 113.373 158.709 112.596 158.025ZM113.399 103.334L40.2585 53.0122C38.9874 52.1345 37.2584 53.0459 37.2584 54.5943V68.351C37.2584 68.9837 37.5688 69.5766 38.0886 69.9325L92.1253 107.114C92.999 107.713 93.2225 108.91 92.6237 109.783L37.5927 189.914C37.3748 190.232 37.2584 190.612 37.2584 190.999V205.391V211.648C37.2584 213.536 39.6934 214.29 40.7544 212.73L113.851 105.667C114.344 104.817 114.116 103.911 113.399 103.334ZM157.617 152.164L230.245 202.12C231.518 202.992 233.247 202.081 233.247 200.539V186.75C233.247 186.118 232.937 185.527 232.418 185.171L153.852 131.162C152.981 130.561 151.785 130.786 151.186 131.656L92.339 217.376C91.4653 218.645 92.3763 220.381 93.9162 220.381H107.663C108.294 220.381 108.885 220.07 109.24 219.548L155.214 152.582C155.872 151.775 156.716 151.619 157.617 152.164Z" fill="#FEFEFE"/>
<path d="M613.333 177.651H609.48L602.876 191.053L596.269 177.651H592.119V180.648L600.037 196.324L594.11 206.858V209.856H598.132L613.333 180.478V177.651ZM622.081 190.326H631.144V199.148H636.309V177.651H631.144V185.959H622.081V177.651H616.958V199.148H622.081V190.326ZM656.802 185.016V199.148H661.97V177.651H657.143L647.318 191.74V177.651H642.195V199.148H646.979L656.802 185.016ZM684.115 197.523C685.554 196.438 686.274 194.838 686.274 192.724C686.274 191.525 685.921 190.492 685.215 189.62C684.51 188.75 683.522 188.129 682.252 187.757C684.369 186.901 685.428 185.387 685.428 183.219C685.428 181.391 684.735 179.993 683.352 179.02C681.969 178.051 680.134 177.563 677.849 177.563H667.855V199.148H678.315C680.741 199.148 682.675 198.607 684.115 197.523ZM677.297 181.419C679.19 181.419 680.134 182.176 680.134 183.689C680.134 185.259 679.19 186.044 677.297 186.044H672.894V181.419H677.297ZM677.553 189.942C679.838 189.942 680.982 190.827 680.982 192.596C680.982 194.366 679.838 195.252 677.553 195.252H672.894V189.942H677.553ZM704.534 199.256C705.649 198.984 706.523 198.678 707.158 198.336C707.792 197.993 708.357 197.607 708.85 197.178C709.346 196.749 709.657 196.451 709.784 196.279C709.911 196.108 710.001 195.965 710.06 195.852V193.025H706.332L706.29 193.153C706.234 193.238 706.15 193.346 706.037 193.474C705.924 193.604 705.782 193.753 705.613 193.923C705.444 194.095 705.216 194.267 704.936 194.437C704.653 194.609 704.327 194.759 703.961 194.887C703.594 195.016 703.149 195.124 702.627 195.208C702.105 195.294 701.549 195.337 700.955 195.337C699.119 195.337 697.68 194.809 696.636 193.753C695.592 192.697 694.997 191.242 694.858 189.385H710.272L710.482 186.857C710.482 183.945 709.649 181.597 707.984 179.813C706.319 178.029 703.819 177.137 700.49 177.137C697.129 177.137 694.489 178.208 692.571 180.349C690.65 182.49 689.691 185.174 689.691 188.4C689.691 191.769 690.659 194.49 692.592 196.558C694.525 198.627 697.299 199.663 700.913 199.663C702.21 199.663 703.417 199.527 704.534 199.256ZM700.49 181.419C702.097 181.419 703.333 181.841 704.193 182.682C705.054 183.526 705.486 184.588 705.486 185.874H695.028C695.646 182.904 697.468 181.419 700.49 181.419ZM720.462 195.979C722.158 198.435 724.569 199.663 727.704 199.663C730.638 199.663 732.996 198.579 734.774 196.407C736.554 194.238 737.443 191.554 737.443 188.356C737.443 185.161 736.567 182.49 734.816 180.349C733.068 178.208 730.695 177.137 727.704 177.137C724.541 177.137 722.114 178.393 720.42 180.905L720.038 177.651H715.338V209.856H720.462V195.979ZM722.072 193.112C720.999 191.769 720.462 190.183 720.462 188.356C720.462 186.53 720.999 184.945 722.072 183.603C723.116 182.319 724.555 181.675 726.392 181.675C728.367 181.675 729.834 182.333 730.794 183.645C731.782 184.988 732.277 186.559 732.277 188.356C732.277 190.183 731.782 191.769 730.794 193.112C729.806 194.454 728.338 195.124 726.392 195.124C724.583 195.124 723.144 194.454 722.072 193.112ZM755.38 199.192C756.438 198.878 757.25 198.526 757.814 198.142C758.378 197.757 758.872 197.307 759.294 196.793C759.72 196.279 759.98 195.923 760.08 195.724C760.177 195.523 760.254 195.367 760.313 195.252V192.425H756.712V192.512C756.686 192.568 756.643 192.653 756.585 192.768C756.53 192.881 756.466 193.004 756.396 193.132C756.325 193.261 756.22 193.411 756.077 193.582C755.936 193.753 755.782 193.911 755.613 194.053C755.442 194.196 755.237 194.338 754.999 194.481C754.757 194.624 754.489 194.753 754.193 194.866C753.898 194.981 753.551 195.067 753.156 195.124C752.761 195.18 752.337 195.208 751.886 195.208C750.023 195.208 748.597 194.573 747.608 193.303C746.622 192.033 746.128 190.398 746.128 188.4C746.128 186.402 746.622 184.76 747.608 183.475C748.597 182.19 750.023 181.548 751.886 181.548C752.422 181.548 752.93 181.597 753.41 181.698C753.889 181.799 754.285 181.926 754.595 182.082C754.906 182.24 755.189 182.425 755.442 182.64C755.697 182.853 755.902 183.055 756.057 183.239C756.212 183.425 756.339 183.603 756.438 183.775C756.537 183.945 756.601 184.074 756.629 184.16L756.672 184.332H760.27V181.504L760.101 181.078C759.959 180.763 759.689 180.384 759.294 179.942C758.901 179.499 758.413 179.062 757.835 178.635C757.256 178.208 756.438 177.843 755.38 177.543C754.319 177.243 753.156 177.093 751.886 177.093C748.554 177.093 745.9 178.173 743.924 180.327C741.95 182.483 740.962 185.174 740.962 188.4C740.962 191.655 741.907 194.346 743.797 196.474C745.689 198.6 748.385 199.663 751.886 199.663C753.156 199.663 754.319 199.505 755.38 199.192ZM779.88 185.016V199.148H785.045V177.651H780.219L770.393 191.74V177.651H765.271V199.148H770.055L779.88 185.016ZM800.395 181.974H806.916V177.651H788.75V181.974H795.272V199.148H800.395V181.974ZM824.17 199.256C825.286 198.984 826.162 198.678 826.797 198.336C827.432 197.993 827.996 197.607 828.49 197.178C828.984 196.749 829.295 196.451 829.422 196.279C829.549 196.108 829.639 195.965 829.698 195.852V193.025H825.971L825.929 193.153C825.872 193.238 825.787 193.346 825.674 193.474C825.562 193.604 825.42 193.753 825.251 193.923C825.081 194.095 824.855 194.267 824.574 194.437C824.289 194.609 823.966 194.759 823.598 194.887C823.232 195.016 822.788 195.124 822.265 195.208C821.743 195.294 821.185 195.337 820.594 195.337C818.757 195.337 817.318 194.809 816.274 193.753C815.229 192.697 814.635 191.242 814.496 189.385H829.909L830.121 186.857C830.121 183.945 829.286 181.597 827.621 179.813C825.956 178.029 823.458 177.137 820.128 177.137C816.768 177.137 814.127 178.208 812.209 180.349C810.288 182.49 809.329 185.174 809.329 188.4C809.329 191.769 810.296 194.49 812.23 196.558C814.162 198.627 816.937 199.663 820.55 199.663C821.849 199.663 823.055 199.527 824.17 199.256ZM820.128 181.419C821.736 181.419 822.97 181.841 823.832 182.682C824.692 183.526 825.124 184.588 825.124 185.874H814.665C815.285 182.904 817.107 181.419 820.128 181.419ZM844.48 181.974H851V177.651H832.834V181.974H839.355V199.148H844.48V181.974Z" fill="#FEFEFE"/>
<path d="M287.371 171.798H297.11V167H272V171.798H281.739V199.12H287.371V171.798ZM302.348 195.951C304.042 198.406 306.455 199.634 309.588 199.634C312.524 199.634 314.88 198.549 316.66 196.38C318.439 194.211 319.327 191.527 319.327 188.329C319.327 185.132 318.452 182.46 316.704 180.319C314.951 178.178 312.581 177.107 309.588 177.107C306.425 177.107 303.998 178.364 302.306 180.877L301.924 177.62H297.224V209.826H302.348V195.951ZM303.956 193.081C302.884 191.741 302.348 190.156 302.348 188.329C302.348 186.501 302.884 184.916 303.956 183.574C305.001 182.29 306.44 181.647 308.276 181.647C310.251 181.647 311.72 182.304 312.679 183.617C313.668 184.96 314.161 186.529 314.161 188.329C314.161 190.156 313.668 191.741 312.679 193.081C311.691 194.425 310.223 195.094 308.276 195.094C306.468 195.094 305.029 194.425 303.956 193.081ZM336.206 196.164L336.672 199.12H341.076V185.93C341.076 183.046 340.297 180.856 338.746 179.356C337.194 177.857 334.92 177.107 331.928 177.107C330.772 177.107 329.707 177.244 328.732 177.515C327.758 177.787 326.989 178.092 326.425 178.435C325.861 178.777 325.359 179.171 324.922 179.612C324.483 180.057 324.208 180.362 324.095 180.532C323.982 180.706 323.897 180.848 323.841 180.961V183.789H327.483L327.568 183.659C327.624 183.574 327.702 183.467 327.8 183.34C327.899 183.21 328.026 183.06 328.181 182.889C328.336 182.718 328.534 182.547 328.774 182.376C329.014 182.203 329.275 182.053 329.559 181.926C329.84 181.799 330.173 181.689 330.554 181.604C330.934 181.519 331.351 181.477 331.802 181.477C334.539 181.477 335.91 182.917 335.91 185.8V186.959L335.36 186.829C334.963 186.743 334.391 186.659 333.643 186.572C332.895 186.487 332.169 186.444 331.464 186.444C328.499 186.444 326.284 187.035 324.816 188.221C323.346 189.406 322.613 190.983 322.613 192.953C322.613 194.78 323.206 196.352 324.39 197.663C325.579 198.977 327.356 199.634 329.728 199.634C332.493 199.634 334.652 198.477 336.206 196.164ZM327.695 192.695C327.695 190.813 329.007 189.871 331.633 189.871C333.298 189.871 334.725 190.04 335.91 190.383V191.412C335.91 192.439 335.465 193.381 334.576 194.236C333.686 195.094 332.493 195.523 330.998 195.523C328.794 195.523 327.695 194.581 327.695 192.695ZM351.946 190.299H361.007V199.12H366.174V177.62H361.007V185.93H351.946V177.62H346.823V199.12H351.946V190.299ZM385.299 199.163C386.357 198.849 387.168 198.498 387.733 198.114C388.298 197.727 388.793 197.278 389.216 196.764C389.64 196.251 389.901 195.893 389.999 195.694C390.098 195.494 390.175 195.337 390.232 195.223V192.396H386.633V192.482C386.603 192.54 386.562 192.625 386.506 192.74C386.449 192.853 386.386 192.975 386.315 193.103C386.244 193.231 386.139 193.381 385.998 193.553C385.857 193.724 385.7 193.881 385.531 194.024C385.363 194.166 385.158 194.309 384.918 194.451C384.678 194.595 384.41 194.724 384.114 194.837C383.817 194.952 383.47 195.038 383.075 195.094C382.68 195.153 382.257 195.181 381.805 195.181C379.943 195.181 378.515 194.546 377.528 193.274C376.54 192.004 376.046 190.37 376.046 188.371C376.046 186.373 376.54 184.731 377.528 183.447C378.515 182.161 379.943 181.519 381.805 181.519C382.341 181.519 382.85 181.568 383.329 181.669C383.809 181.769 384.204 181.898 384.516 182.053C384.825 182.212 385.109 182.397 385.363 182.611C385.618 182.824 385.821 183.024 385.976 183.21C386.131 183.396 386.259 183.574 386.357 183.747C386.457 183.918 386.52 184.045 386.547 184.131L386.59 184.302H390.19V181.477L390.02 181.048C389.88 180.734 389.611 180.357 389.216 179.912C388.819 179.471 388.333 179.036 387.754 178.607C387.176 178.178 386.357 177.815 385.299 177.515C384.241 177.215 383.075 177.066 381.805 177.066C378.473 177.066 375.821 178.142 373.845 180.298C371.868 182.454 370.88 185.145 370.88 188.371C370.88 191.625 371.826 194.317 373.718 196.443C375.608 198.57 378.305 199.634 381.805 199.634C383.075 199.634 384.241 199.477 385.299 199.163ZM400.314 181.946H408.953V199.12H414.118V177.62H395.19V199.12H400.314V181.946ZM437.744 196.38C439.737 194.211 440.731 191.527 440.731 188.329C440.731 185.132 439.737 182.46 437.744 180.319C435.755 178.178 433.094 177.107 429.765 177.107C426.376 177.107 423.693 178.178 421.718 180.319C419.742 182.46 418.754 185.132 418.754 188.329C418.754 191.555 419.75 194.246 421.739 196.401C423.73 198.556 426.405 199.634 429.765 199.634C433.094 199.634 435.755 198.549 437.744 196.38ZM425.361 193.167C424.401 191.854 423.922 190.24 423.922 188.329C423.922 186.473 424.401 184.887 425.361 183.574C426.349 182.233 427.815 181.562 429.765 181.562C431.711 181.562 433.178 182.233 434.169 183.574C435.1 184.916 435.565 186.501 435.565 188.329C435.565 190.24 435.1 191.854 434.169 193.167C433.178 194.51 431.711 195.181 429.765 195.181C427.815 195.181 426.349 194.51 425.361 193.167ZM450.416 195.951C452.108 198.406 454.523 199.634 457.656 199.634C460.593 199.634 462.948 198.549 464.728 196.38C466.506 194.211 467.395 191.527 467.395 188.329C467.395 185.132 466.52 182.46 464.77 180.319C463.019 178.178 460.648 177.107 457.656 177.107C454.493 177.107 452.066 178.364 450.373 180.877L449.992 177.62H445.292V209.826H450.416V195.951ZM452.024 193.081C450.951 191.741 450.416 190.156 450.416 188.329C450.416 186.501 450.951 184.916 452.024 183.574C453.067 182.29 454.508 181.647 456.344 181.647C458.319 181.647 459.788 182.304 460.747 183.617C461.736 184.96 462.229 186.529 462.229 188.329C462.229 190.156 461.736 191.741 460.747 193.081C459.758 194.425 458.291 195.094 456.344 195.094C454.535 195.094 453.096 194.425 452.024 193.081ZM481.5 181.946H488.021V177.62H469.855V181.946H476.376V199.12H481.5V181.946ZM496.87 190.299H505.932V199.12H511.098V177.62H505.932V185.93H496.87V177.62H491.747V199.12H496.87V190.299ZM532.693 196.934C534.132 195.537 534.853 193.782 534.853 191.67C534.853 189.528 534.097 187.807 532.587 186.509C531.077 185.209 528.867 184.559 525.96 184.559H522.106V177.62H516.983V199.12H525.876C528.924 199.12 531.197 198.393 532.693 196.934ZM542.644 177.62H537.52V199.119H542.644V177.62ZM525.496 188.584C528.176 188.584 529.518 189.626 529.518 191.711C529.518 193.967 528.176 195.094 525.496 195.094H522.106V188.584H525.496ZM563.201 173.167C563.653 172.854 564.048 172.497 564.387 172.097C564.725 171.697 564.945 171.385 565.043 171.155C565.142 170.926 565.22 170.726 565.275 170.555V167.986H561.508C561.508 168.185 561.438 168.471 561.296 168.843C561.154 169.213 560.844 169.613 560.364 170.04C559.884 170.469 559.306 170.684 558.629 170.684C557.895 170.684 557.288 170.469 556.808 170.04C556.327 169.613 556.03 169.221 555.92 168.864C555.805 168.508 555.751 168.215 555.751 167.986H551.98V170.555C552.037 170.726 552.115 170.926 552.214 171.155C552.313 171.385 552.531 171.697 552.87 172.097C553.208 172.497 553.603 172.854 554.055 173.167C554.506 173.482 555.135 173.76 555.94 174.002C556.744 174.245 557.641 174.366 558.629 174.366C559.617 174.366 560.512 174.245 561.319 174.002C562.122 173.76 562.751 173.482 563.201 173.167ZM563.159 184.988V199.12H568.325V177.62H563.497L553.674 191.711V177.62H548.55V199.12H553.336L563.159 184.988Z" fill="#FEFEFE"/>
<path d="M348.273 84.6364V96.5455H309.318V84.6364H348.273ZM285.273 106.455H299.545C300.333 112.576 302.364 117.258 305.636 120.5C308.939 123.742 314.076 125.364 321.045 125.364C326.197 125.364 330.439 124 333.773 121.273C337.106 118.515 339.576 114.788 341.182 110.091C342.818 105.394 343.636 100.121 343.636 94.2727V84.8182C343.636 78.5152 342.727 73.0303 340.909 68.3636C339.091 63.697 336.439 60.0909 332.955 57.5455C329.5 55 325.273 53.7273 320.273 53.7273C315.758 53.7273 312.061 54.5 309.182 56.0455C306.303 57.5909 304.091 59.803 302.545 62.6818C301.03 65.5303 300.03 68.9697 299.545 73H285.227C285.833 67 287.5 61.6364 290.227 56.9091C292.985 52.1818 296.848 48.4545 301.818 45.7273C306.818 43 312.97 41.6364 320.273 41.6364C327.97 41.6364 334.621 43.4242 340.227 47C345.864 50.5455 350.212 55.5455 353.273 62C356.333 68.4545 357.864 76.0303 357.864 84.7273V94.4091C357.864 103.106 356.348 110.667 353.318 117.091C350.318 123.515 346.061 128.485 340.545 132C335.03 135.515 328.53 137.273 321.045 137.273C313.561 137.273 307.273 135.939 302.182 133.273C297.091 130.576 293.152 126.909 290.364 122.273C287.576 117.606 285.879 112.333 285.273 106.455ZM448.125 42.9091V136H434.125V54.9091H390.307V136H376.307V42.9091H448.125ZM469.602 42.9091H483.511V111.273H484.375L531.739 42.9091H544.739V136H530.693V67.7273H529.83L482.557 136H469.602V42.9091ZM605.273 83.5455V95.3636H564V83.5455H605.273ZM654.364 137.273C648.121 137.273 642.545 136.197 637.636 134.045C632.758 131.894 628.894 128.909 626.045 125.091C623.227 121.242 621.712 116.788 621.5 111.727H635.773C635.955 114.485 636.879 116.879 638.545 118.909C640.242 120.909 642.455 122.455 645.182 123.545C647.909 124.636 650.939 125.182 654.273 125.182C657.939 125.182 661.182 124.545 664 123.273C666.848 122 669.076 120.227 670.682 117.955C672.288 115.652 673.091 113 673.091 110C673.091 106.879 672.288 104.136 670.682 101.773C669.106 99.3788 666.788 97.5 663.727 96.1364C660.697 94.7727 657.03 94.0909 652.727 94.0909H644.864V82.6364H652.727C656.182 82.6364 659.212 82.0151 661.818 80.7727C664.455 79.5303 666.515 77.803 668 75.5909C669.485 73.3485 670.227 70.7273 670.227 67.7273C670.227 64.8485 669.576 62.3485 668.273 60.2273C667 58.0758 665.182 56.3939 662.818 55.1818C660.485 53.9697 657.727 53.3636 654.545 53.3636C651.515 53.3636 648.682 53.9242 646.045 55.0455C643.439 56.1364 641.318 57.7121 639.682 59.7727C638.045 61.803 637.167 64.2424 637.045 67.0909H623.455C623.606 62.0606 625.091 57.6364 627.909 53.8182C630.758 50 634.515 47.0151 639.182 44.8636C643.848 42.7121 649.03 41.6364 654.727 41.6364C660.697 41.6364 665.848 42.803 670.182 45.1364C674.545 47.4394 677.909 50.5151 680.273 54.3636C682.667 58.2121 683.848 62.4242 683.818 67C683.848 72.2121 682.394 76.6364 679.455 80.2727C676.545 83.9091 672.667 86.3485 667.818 87.5909V88.3182C674 89.2576 678.788 91.7121 682.182 95.6818C685.606 99.6515 687.303 104.576 687.273 110.455C687.303 115.576 685.879 120.167 683 124.227C680.152 128.288 676.258 131.485 671.318 133.818C666.379 136.121 660.727 137.273 654.364 137.273ZM739.773 42.9091V136H725.682V57H725.136L702.864 71.5455V58.0909L726.091 42.9091H739.773ZM764.955 136V125.818L796.455 93.1818C799.818 89.6364 802.591 86.5303 804.773 83.8636C806.985 81.1667 808.636 78.6061 809.727 76.1818C810.818 73.7576 811.364 71.1818 811.364 68.4545C811.364 65.3636 810.636 62.697 809.182 60.4545C807.727 58.1818 805.742 56.4394 803.227 55.2273C800.712 53.9848 797.879 53.3636 794.727 53.3636C791.394 53.3636 788.485 54.0455 786 55.4091C783.515 56.7727 781.606 58.697 780.273 61.1818C778.939 63.6667 778.273 66.5758 778.273 69.9091H764.864C764.864 64.2424 766.167 59.2879 768.773 55.0455C771.379 50.803 774.955 47.5151 779.5 45.1818C784.045 42.8182 789.212 41.6364 795 41.6364C800.848 41.6364 806 42.803 810.455 45.1364C814.939 47.4394 818.439 50.5909 820.955 54.5909C823.47 58.5606 824.727 63.0455 824.727 68.0455C824.727 71.5 824.076 74.8788 822.773 78.1818C821.5 81.4848 819.273 85.1667 816.091 89.2273C812.909 93.2576 808.485 98.1515 802.818 103.909L784.318 123.273V123.955H826.227V136H764.955Z" fill="white"/>
</svg>
